<?xml version="1.0" encoding="UTF-8" standalone="no"?>
<svg
   xmlns:dc="http://purl.org/dc/elements/1.1/"
   xmlns:cc="http://creativecommons.org/ns#"
   xmlns:rdf="http://www.w3.org/1999/02/22-rdf-syntax-ns#"
   xmlns:svg="http://www.w3.org/2000/svg"
   xmlns="http://www.w3.org/2000/svg"
   xmlns:sodipodi="http://sodipodi.sourceforge.net/DTD/sodipodi-0.dtd"
   xmlns:inkscape="http://www.inkscape.org/namespaces/inkscape"
   sodipodi:docname="title.svg"
   inkscape:version="1.0 (4035a4fb49, 2020-05-01)"
   id="svg8"
   version="1.1"
   viewBox="0 0 169.33333 79.375002"
   height="300"
   width="640">
  <defs
     id="defs2" />
  <sodipodi:namedview
     inkscape:window-maximized="1"
     inkscape:window-y="-8"
     inkscape:window-x="1912"
     inkscape:window-height="1027"
     inkscape:window-width="1920"
     units="px"
     showgrid="false"
     inkscape:document-rotation="0"
     inkscape:current-layer="layer1"
     inkscape:document-units="mm"
     inkscape:cy="185.7558"
     inkscape:cx="451.57975"
     inkscape:zoom="1.04375"
     inkscape:pageshadow="2"
     inkscape:pageopacity="0.0"
     borderopacity="1.0"
     bordercolor="#666666"
     pagecolor="#ffffff"
     id="base" />
  <metadata
     id="metadata5">
    <rdf:RDF>
      <cc:Work
         rdf:about="">
        <dc:format>image/svg+xml</dc:format>
        <dc:type
           rdf:resource="http://purl.org/dc/dcmitype/StillImage" />
        <dc:title></dc:title>
      </cc:Work>
    </rdf:RDF>
  </metadata>
  <g
     id="layer1"
     inkscape:groupmode="layer"
     inkscape:label="Layer 1">
    <path
       id="path833"
       d="m 44.271397,14.636303 -1.748231,9.104019 1.498483,5.369036 2.747218,0.233437 -0.499494,-6.069346 h 2.497471 l 1.248736,5.369036 1.997977,0.233437 -1.248736,-7.703401 2.247724,-6.302782 -3.496459,-0.233436 -0.99899,5.602473 h -3.246711 l 0.749241,-6.069346 z"
       style="fill:#f0b800;fill-opacity:1;stroke:#f0a000;stroke-width:2.4;stroke-opacity:1" />
    <path
       id="path835"
       d="m 51.826248,16.620512 8.803584,0.05836 0.249747,2.159287 -7.055355,-0.233437 v 3.793341 l 4.308137,-0.525231 0.124873,1.634054 -3.746206,1.050463 -0.18731,2.217647 7.305102,-1.167182 -0.374621,2.917954 -9.240642,0.350155 z"
       style="fill:#f0b800;fill-opacity:1;stroke:#f0a000;stroke-width:2.4;stroke-opacity:1" />
    <path
       id="path837"
       d="m 64.063857,16.73723 -2.809658,11.788537 2.12285,-0.233437 1.685793,-4.843805 3.12184,-0.175077 1.623359,4.727087 2.372597,0.116718 -5.182255,-12.080332 z"
       style="fill:#f0b800;fill-opacity:1;stroke:#f0a000;stroke-width:2.4;stroke-opacity:1" />
    <path
       id="path839"
       d="m 65.287476,19.083027 -0.437056,1.984209 h 2.435032 z"
       style="fill:#f0b800;fill-opacity:1;stroke:#f0a000;stroke-width:2.4;stroke-opacity:1" />
    <path
       id="path841"
       d="m 74.009955,17.74558 0.499495,10.562996 2.872092,-0.116718 -1.061424,-10.97151 4.557885,0.583591 -0.749242,-4.143496 -11.176183,1.750773 1.061424,3.559905 z"
       style="fill:#f0b800;fill-opacity:1;stroke:#f0a000;stroke-width:2.4;stroke-opacity:1" />
    <path
       id="path859"
       d="m 82.678442,15.038207 0.473751,13.173526 h 4.619035 l 4.500605,-7.472379 z"
       style="fill:#787878;fill-opacity:1;stroke:#787878;stroke-width:2.4;stroke-opacity:1" />
    <path
       sodipodi:nodetypes="csccscccccccc"
       id="path861"
       d="m 99.496481,14.982855 c 0,0 -7.283868,-0.719562 -7.402304,-0.498158 -0.118435,0.221404 -0.592182,14.280546 -0.592182,14.280546 l 10.185565,-0.276755 c 0,0 -1.42124,-1.71588 -1.53968,-1.937284 -0.11843,-0.221403 -6.395587,0.221404 -6.395587,0.221404 l -0.296091,-4.815533 5.329657,0.221404 -0.592182,-2.546144 -4.263729,0.387457 -0.05922,-2.878249 5.921844,-0.166053 z"
       style="fill:#787878;fill-opacity:1;stroke:#787878;stroke-width:2.4;stroke-opacity:1" />
    <path
       id="path863"
       d="m 101.1546,27.215416 3.02014,-11.6237 2.2503,0.332106 3.02014,12.564666 -2.60561,-0.940966 -1.18437,-5.701149 -1.30281,-0.166052 -0.94749,5.922551 z"
       style="fill:#787878;fill-opacity:1;stroke:#787878;stroke-width:2.4;stroke-opacity:1" />
    <path
       id="path865"
       d="m 112.46532,19.521633 -0.9475,9.741768 4.1453,-0.719563 -1.12516,-10.018522 3.1978,-0.221404 -0.71062,-3.54246 -9.23808,0.387456 1.30281,4.870884 z"
       style="fill:#787878;fill-opacity:1;stroke:#787878;stroke-width:2.4;stroke-opacity:1" />
    <path
       id="path867"
       d="m 119.39388,14.982856 -0.41453,14.114492 3.07936,-0.387456 -0.23688,-5.424394 2.48718,0.221404 v 4.815533 l 2.42795,0.276755 -1.00671,-13.450282 -2.60561,-0.05535 0.41453,5.922552 -1.77655,-0.221404 -0.59219,-5.424393 z"
       style="fill:#787878;fill-opacity:1;stroke:#787878;stroke-width:2.4;stroke-opacity:1" />
    <path
       id="path869"
       d="m 85.698587,20.130494 -0.473747,4.317374 3.612322,-2.601495 z"
       style="fill:#000000;fill-opacity:1;stroke:none;stroke-width:2.4;stroke-opacity:1" />
  </g>
</svg>
